<?xml version="1.0" encoding="utf-8"?>
<!-- Generated by IcoMoon.io -->
<!DOCTYPE svg PUBLIC "-//W3C//DTD SVG 1.1//EN" "http://www.w3.org/Graphics/SVG/1.1/DTD/svg11.dtd">
<svg version="1.1" xmlns="http://www.w3.org/2000/svg" xmlns:xlink="http://www.w3.org/1999/xlink" width="512" height="512" viewBox="0 0 512 512">
<g>
</g>
	<path d="M480 128c17.673 0 32-14.327 32-32v-64h-64v-32h-416c-17.6 0-32 14.399-32 32v448c0 17.6 14.398 32 32 32h416v-128h32c17.673 0 32-14.327 32-32v-64h-64v-32h32c17.673 0 32-14.327 32-32v-64h-64v-32h32zM288 128.165c35.255 0 63.835 28.58 63.835 63.835s-28.58 63.835-63.835 63.835c-35.255 0-63.835-28.58-63.835-63.835s28.58-63.835 63.835-63.835zM128 480h-32v-448h32v448zM384 384h-192v-32c0-35.347 28.654-64 64-64v0h64c35.348 0 64 28.653 64 64v32z" fill="#000000"></path>
</svg>
